<?xml version="1.0" encoding="utf-8"?>
<!-- Generator: Adobe Illustrator 17.1.0, SVG Export Plug-In . SVG Version: 6.00 Build 0)  -->
<!DOCTYPE svg PUBLIC "-//W3C//DTD SVG 1.1//EN" "http://www.w3.org/Graphics/SVG/1.1/DTD/svg11.dtd">
<svg version="1.1" id="Слой_1" xmlns="http://www.w3.org/2000/svg" xmlns:xlink="http://www.w3.org/1999/xlink" x="0px" y="0px"
	 viewBox="0 0 2182 400" enable-background="new 0 0 2182 400" xml:space="preserve">
<circle fill="#FFFFFF" cx="2939.3" cy="-726.1" r="391.5"/>
<rect x="-1041" y="680" fill="#FFFFFF" width="995" height="844"/>
<line fill="#28263C" x1="-615" y1="50.6" x2="-513.4" y2="50.6"/>
<path fill="#1E73B2" d="M-827.5-1168.8h-87.6c-2.1,0-4,1.6-4.5,3.8l-131.8,564c-0.7,3.1,1.5,6.2,4.5,6.2h87.4c2.1,0,4-1.5,4.5-3.8
	l132-564C-822.3-1165.8-824.5-1168.8-827.5-1168.8z"/>
<path fill="#2683B7" d="M-1094.3-1012.4h-87.3c-2,0-3.7,1.3-4.4,3.3l-130.9,407.6c-1,3.2,1.2,6.6,4.4,6.6h87.1c2,0,3.7-1.3,4.4-3.3
	l131.1-407.6C-1088.9-1009-1091.1-1012.4-1094.3-1012.4z"/>
<path fill="#1E73B2" d="M-961.5-594.8h-87.3c-2,0-3.7-1.3-4.4-3.3l-130.9-407.6c-1-3.2,1.2-6.6,4.4-6.6h87.1c2,0,3.7,1.3,4.4,3.3
	l131.1,407.6C-956.1-598.2-958.4-594.8-961.5-594.8z"/>
<path fill="#1E73B2" d="M-1227.2-594.8h-87.6c-2.1,0-4-1.6-4.5-3.8l-131.8-564c-0.7-3.1,1.5-6.2,4.5-6.2h87.4c2.1,0,4,1.5,4.5,3.8
	l132,564C-1222-597.9-1224.2-594.8-1227.2-594.8z"/>
<path fill="#1E73B2" d="M2030.8-1168.8h-87.6c-2.1,0-4,1.6-4.5,3.8L1807-601c-0.7,3.1,1.5,6.2,4.5,6.2h87.4c2.1,0,4-1.5,4.5-3.8
	l132-564C2036-1165.8,2033.8-1168.8,2030.8-1168.8z"/>
<path fill="#2683B7" d="M1223-934.9h-87.3c-2,0-3.7,1.3-4.4,3.3l-130.9,407.6c-1,3.2,1.2,6.6,4.4,6.6h87.1c2,0,3.7-1.3,4.4-3.3
	l131.1-407.6C1228.4-931.5,1226.1-934.9,1223-934.9z"/>
<path fill="#1E73B2" d="M1355.7-517.3h-87.3c-2,0-3.7-1.3-4.4-3.3l-130.9-407.6c-1-3.2,1.2-6.6,4.4-6.6h87.1c2,0,3.7,1.3,4.4,3.3
	l131.1,407.6C1361.1-520.7,1358.9-517.3,1355.7-517.3z"/>
<path fill="#1E73B2" d="M1631.1-594.8h-87.6c-2.1,0-4-1.6-4.5-3.8l-131.8-564c-0.7-3.1,1.5-6.2,4.5-6.2h87.4c2.1,0,4,1.5,4.5,3.8
	l132,564C1636.3-597.9,1634.1-594.8,1631.1-594.8z"/>
<path fill="#1D9FC7" d="M1135.6,594l-115.8,495.2c-0.5,1.9-2.1,3.3-3.9,3.3h-78.5c-1.7,0-3.3-1.2-3.8-2.9l-73.6-229.2l-73.7,229.2
	c-0.6,1.8-2.1,2.9-3.8,2.9h-78.5c-1.9,0-3.5-1.4-3.9-3.3L584.3,594c-0.6-2.8,1.3-5.4,3.9-5.4h76.7c1.9,0,3.5,1.4,3.9,3.3l81,346.1
	L817,728.9c0.6-1.8,2.1-2.9,3.8-2.9h78.1c1.7,0,3.3,1.2,3.8,2.9L970,938l80.8-346.1c0.5-1.9,2.1-3.3,3.9-3.3h76.9
	C1134.3,588.6,1136.3,591.3,1135.6,594z"/>
<line fill="#28263C" x1="853.9" y1="1015.7" x2="948.5" y2="1015.7"/>
<path fill="#CECDCD" d="M1328.2,1015.7h-105.7c-2.6,0-4.8,1.9-5.4,4.5l-159,680.7c-0.9,3.8,1.8,7.5,5.4,7.5H1169
	c2.6,0,4.8-1.9,5.4-4.5l159.2-680.7C1334.5,1019.4,1331.8,1015.7,1328.2,1015.7z"/>
<path fill="#CECECE" d="M1006.2,1204.5H900.9c-2.4,0-4.5,1.6-5.3,4l-158,491.9c-1.3,3.9,1.4,8,5.3,8h105.2c2.4,0,4.5-1.6,5.3-4
	l158.2-491.9C1012.8,1208.5,1010.1,1204.5,1006.2,1204.5z"/>
<path fill="#D6D6D6" d="M1166.4,1708.4h-105.4c-2.4,0-4.5-1.6-5.3-4l-158-491.9c-1.3-3.9,1.4-8,5.3-8h105.2c2.4,0,4.5,1.6,5.3,4
	l158.2,491.9C1173,1704.3,1170.3,1708.4,1166.4,1708.4z"/>
<path fill="#D6D6D6" d="M845.8,1708.4H740.2c-2.6,0-4.8-1.9-5.4-4.5l-159-680.7c-0.9-3.8,1.8-7.5,5.4-7.5h105.5
	c2.6,0,4.8,1.9,5.4,4.5l159.2,680.7C852.1,1704.7,849.5,1708.4,845.8,1708.4z"/>
<path fill="#25A3C1" d="M1271,1015.7h-105.7c-2.6,0-4.8,1.9-5.4,4.5l-159,680.7c-0.9,3.8,1.8,7.5,5.4,7.5h105.5
	c2.6,0,4.8-1.9,5.4-4.5l159.2-680.7C1277.3,1019.4,1274.7,1015.7,1271,1015.7z"/>
<path fill="#25A9CC" d="M949.1,1204.5H843.7c-2.4,0-4.5,1.6-5.3,4l-158,491.9c-1.3,3.9,1.4,8,5.3,8h105.2c2.4,0,4.5-1.6,5.3-4
	l158.2-491.9C955.6,1208.5,952.9,1204.5,949.1,1204.5z"/>
<path fill="#1D9FC7" d="M1109.3,1708.4h-105.4c-2.4,0-4.5-1.6-5.3-4l-158-491.9c-1.3-3.9,1.4-8,5.3-8h105.2c2.4,0,4.5,1.6,5.3,4
	l158.2,491.9C1115.8,1704.3,1113.1,1708.4,1109.3,1708.4z"/>
<path fill="#1D9FC7" d="M788.7,1708.4H683c-2.6,0-4.8-1.9-5.4-4.5l-159-680.7c-0.9-3.8,1.8-7.5,5.4-7.5h105.5c2.6,0,4.8,1.9,5.4,4.5
	l159.2,680.7C795,1704.7,792.3,1708.4,788.7,1708.4z"/>
<line fill="#28263C" x1="-1611.1" y1="-240.4" x2="-1509.5" y2="-240.4"/>
<path fill="#3196C3" d="M-1099.9-147.2h-4.6c-27,0-50.5,18.3-57.1,44.5l-144.4,575c-9.3,37.1,18.8,73.2,57.1,73.2h4.4
	c27,0,50.5-18.3,57.1-44.5l144.6-575C-1033.5-111.1-1061.6-147.2-1099.9-147.2z"/>
<path fill="#3196C3" d="M-1428.7,68l-1.4-0.2c-24.8-3.9-49.3,8.3-61.1,30.4l-192.1,360.7c-19,35.7,2.8,79.4,42.7,85.8l1.2,0.2
	c24.8,3.9,49.3-8.3,61.1-30.4l192.3-360.6C-1366.9,118.1-1388.7,74.3-1428.7,68z"/>
<path fill="#3196C3" d="M-1235.7,544.6l-1.4,0.2c-24.8,3.9-49.3-8.3-61.1-30.4l-192.1-360.7c-19-35.7,2.8-79.4,42.7-85.8l1.2-0.2
	c24.8-3.9,49.3,8.3,61.1,30.4l192.3,360.6C-1173.9,494.5-1195.7,538.3-1235.7,544.6z"/>
<path fill="#3196C3" d="M-1628.3,545.5h-4.6c-27,0-50.5-18.3-57.1-44.5l-144.4-575c-9.3-37.1,18.8-73.2,57.1-73.2h4.4
	c27,0,50.5,18.3,57.1,44.5l144.6,575C-1561.9,509.5-1590,545.5-1628.3,545.5z"/>
<text transform="matrix(1 0 0 1 15.1041 424.1731)" display="none" fill="#B7B7B7" font-family="'BrowalliaUPC'" font-size="1000">W</text>
<text transform="matrix(1 0 0 1 575.5673 308.9946)" fill="#666666" font-family="'Utsaah-Bold'" font-size="500">WetyWeb</text>
<polygon fill="#1E70B1" points="3141.4,-464.3 3041.9,-464.4 3142,-934.7 3240.9,-934.5 "/>
<polygon fill="#1E73B2" points="-342.6,-91.2 -243.6,-91.2 -343.7,-561.4 -442.1,-561.4 "/>
<polygon fill="#2391C0" points="2859.7,-464.3 2760.2,-464.4 2901.5,-934.7 3000.3,-934.5 "/>
<polygon fill="#2391C0" points="3041.9,-464.3 3141.4,-464.4 3000.2,-934.7 2901.3,-934.5 "/>
<polygon fill="#1E70B1" points="2760.3,-464.4 2859.8,-464.3 2725.6,-934.8 2626.8,-934.9 "/>
<circle fill="#FFFFFF" cx="2356.3" cy="1129.7" r="307"/>
<polygon fill="#1E70B1" points="444.5,389.8 364.1,389.7 445,9.6 524.9,9.6 "/>
<polygon fill="#2391C0" points="216.8,389.8 136.3,389.7 250.5,9.6 330.5,9.6 "/>
<polygon fill="#2391C0" points="364.1,389.8 444.5,389.7 330.3,9.6 250.4,9.6 "/>
<polygon fill="#1E70B1" points="136.4,389.7 216.8,389.8 108.4,9.4 28.4,9.4 "/>
<rect x="-548.9" y="-504.4" fill="#1E73B2" width="96.7" height="460.2"/>
</svg>
